<?xml version="1.0" standalone="no"?><!DOCTYPE svg PUBLIC "-//W3C//DTD SVG 1.1//EN" "http://www.w3.org/Graphics/SVG/1.1/DTD/svg11.dtd"><svg t="1598407316360" class="icon" viewBox="0 0 1024 1024" version="1.1" xmlns="http://www.w3.org/2000/svg" p-id="1086" xmlns:xlink="http://www.w3.org/1999/xlink" width="200" height="200"><defs><style type="text/css"></style></defs><path d="M286.53211 667.009174l155.009174-380.477064 234.862386 244.256881 178.495413-169.100918-178.495413 394.568808-201.981652-258.348624z" fill="#72DDF5" p-id="1087"></path><path d="M273.483156 661.69189l-0.281835 0.728073c-4.772404 13.546862 11.82767 24.895413 22.758165 15.064074l176.658789-159.001835 192.681101 246.455192c6.529174 8.342312 19.578128 6.778128 23.941872-2.870018l178.495413-394.568807 0.310018-0.728074c5.458202-13.786422-11.808881-25.759706-22.838018-15.313027l-168.344661 159.480954-225.167266-234.17189c-7.064661-7.351193-19.357358-4.993174-23.204404 4.448294l-155.009174 380.477064z m172.924477-349.766459l219.840587 228.629138 0.657615 0.643523a14.091743 14.091743 0 0 0 19.188257-0.178496l126.365358-119.723449-139.301578 307.93277-187.636257-240.001174-0.554276-0.667009a14.091743 14.091743 0 0 0-19.972697-1.12734L322.74789 615.452183l123.659743-303.526752z" fill="#221937" p-id="1088"></path><path d="M286.53211 667.009174H173.798165l145.614679-380.477064h122.12844z" fill="#F55C92" p-id="1089"></path><path d="M441.541284 272.440367H319.412844a14.091743 14.091743 0 0 0-13.161688 9.056294l-145.614679 380.477064C157.104147 671.199119 163.919853 681.100917 173.798165 681.100917h112.733945a14.091743 14.091743 0 0 0 13.048954-8.774458l155.009175-380.477065C458.366826 282.581725 451.551119 272.440367 441.541284 272.440367z m-20.959119 28.183486l-143.529101 352.293578H194.273468l134.829798-352.293578h91.478899z" fill="#221937" p-id="1090"></path><path d="M399.266055 563.669725l155.009174 211.376147 122.128441-18.788991-197.284404-258.348624z" fill="#F55C92" p-id="1091"></path><path d="M470.161615 487.029431l-79.853211 65.761468a14.091743 14.091743 0 0 0-2.404991 19.211743l155.009174 211.376147a14.091743 14.091743 0 0 0 13.504587 5.594422l122.128441-18.788991c10.573505-1.625248 15.54789-13.979009 9.056293-22.481027l-197.284403-258.348624a14.091743 14.091743 0 0 0-20.15589-2.325138z m6.627816 31.048808l174.000147 227.858789-90.205945 13.875669-142.077651-193.737981 58.283449-47.996477z" fill="#221937" p-id="1092"></path><path d="M620.036697 465.027523l145.614679-140.917431 89.247707 37.577981-178.495413 169.100918z" fill="#FFFFFF" p-id="1093"></path><path d="M685.798165 474.422018a9.394495 9.394495 0 1 1 0 18.788991 9.394495 9.394495 0 0 1 0-18.788991z m-23.486238-18.78899a9.394495 9.394495 0 1 1 0 18.78899 9.394495 9.394495 0 0 1 0-18.78899z m46.972477-4.697248a9.394495 9.394495 0 1 1 0 18.788991 9.394495 9.394495 0 0 1 0-18.788991z m18.78899-18.788991a9.394495 9.394495 0 1 1 0 18.788991 9.394495 9.394495 0 0 1 0-18.788991z m-42.275229 0a9.394495 9.394495 0 1 1 0 18.788991 9.394495 9.394495 0 0 1 0-18.788991z m65.761468-18.788991a9.394495 9.394495 0 1 1 0 18.788991 9.394495 9.394495 0 0 1 0-18.788991z m-46.972477 0a9.394495 9.394495 0 1 1 0 18.788991 9.394495 9.394495 0 0 1 0-18.788991z m18.788991-18.788991a9.394495 9.394495 0 1 1 0 18.788991 9.394495 9.394495 0 0 1 0-18.788991z m42.275229-4.697247a9.394495 9.394495 0 1 1 0 18.78899 9.394495 9.394495 0 0 1 0-18.78899z m-23.486238-18.788991a9.394495 9.394495 0 1 1 0 18.788991 9.394495 9.394495 0 0 1 0-18.788991z m46.972477-4.697248a9.394495 9.394495 0 1 1 0 18.788991 9.394495 9.394495 0 0 1 0-18.788991z m-23.486239-14.091743a9.394495 9.394495 0 1 1 0 18.788991 9.394495 9.394495 0 0 1 0-18.788991z" fill="#221937" p-id="1094"></path><path d="M755.852917 313.982826l-145.614678 140.917431a14.091743 14.091743 0 0 0-0.901872 19.296293l56.366972 65.761468a14.091743 14.091743 0 0 0 20.390753 1.061578l178.495413-169.100917c7.384073-6.998899 5.152881-19.272807-4.222826-23.218496l-89.247707-37.577981a14.091743 14.091743 0 0 0-15.266055 2.865321z m12.908037 26.722642l60.777688 25.590605-152.078092 144.073982-38.094678-44.445358 129.395082-125.219229z" fill="#221937" p-id="1095"></path></svg>