<?xml version="1.0" standalone="no"?><!DOCTYPE svg PUBLIC "-//W3C//DTD SVG 1.1//EN" "http://www.w3.org/Graphics/SVG/1.1/DTD/svg11.dtd"><svg t="1598426035935" class="icon" viewBox="0 0 1024 1024" version="1.1" xmlns="http://www.w3.org/2000/svg" p-id="800" xmlns:xlink="http://www.w3.org/1999/xlink" width="200" height="200"><defs><style type="text/css"></style></defs><path d="M819.41 577.05c0 81.95-31.95 158.95-90.08 216.82-58.02 57.97-135.22 89.84-217.39 89.84s-159.36-31.87-217.39-89.84c-58.12-57.97-90.08-134.97-90.08-216.82s31.95-158.95 90.08-216.82c58.12-57.97 135.32-89.84 217.39-89.84 0.3 0-66.24 87.32-66.24 87.32-12.88 16.8-9.74 40.77 7.1 53.52 7 5.36 15.11 7.89 23.23 7.89 11.46 0 22.93-5.16 30.43-14.97l120.41-156.72c12.88-16.8 9.74-40.77-7.1-53.52L460.21 71.87c-16.84-12.85-40.88-9.61-53.66 7.08-12.88 16.8-9.74 40.77 7.1 53.52l80.85 61.82c-45.65 2.02-89.98 11.94-131.97 29.75-45.75 19.32-86.83 46.95-122.03 82.05-35.3 35.21-62.99 76.19-82.27 121.72C138.14 475.06 128 525.25 128 576.95c0 51.7 10.14 101.88 30.23 149.13 19.37 45.63 47.07 86.61 82.27 121.72 35.3 35.21 76.38 62.83 122.03 82.05C409.9 949.88 460.21 960 512.05 960s102.15-10.12 149.52-30.15c45.65-19.12 86.73-46.74 121.93-81.85 35.3-35.21 62.99-76.19 82.27-121.72C885.86 679.03 896 628.85 896 577.15c0.1-21.15-17.14-38.35-38.24-38.35-21.2 0-38.35 17.1-38.35 38.25z" fill="#333333" p-id="801"></path></svg>